<?xml version="1.0" standalone="no"?>
<!DOCTYPE svg PUBLIC "-//W3C//DTD SVG 20010904//EN"
 "http://www.w3.org/TR/2001/REC-SVG-20010904/DTD/svg10.dtd">
<svg version="1.0" xmlns="http://www.w3.org/2000/svg"
 width="350.000000pt" height="390.000000pt" viewBox="0 0 350.000000 390.000000"
 preserveAspectRatio="xMidYMid meet">
<metadata>
Created by potrace 1.16, written by Peter Selinger 2001-2019
</metadata>
<g transform="translate(0.000000,390.000000) scale(0.100000,-0.100000)"
fill="#000000" stroke="none">
<path d="M1631 3878 c-53 -26 -95 -82 -111 -149 -15 -61 -7 -117 25 -188 l25
-53 0 -1485 c0 -1410 -1 -1485 -17 -1478 -23 8 -865 449 -1042 545 l-134 73 5
784 c3 431 8 787 11 789 3 3 98 -43 211 -103 l206 -108 -4 -530 c-3 -291 -8
-570 -11 -618 -6 -82 -5 -92 19 -140 83 -166 321 -167 401 -3 36 74 39 169 7
236 -21 45 -22 51 -22 662 l0 617 -112 60 c-62 34 -244 129 -404 213 l-292
153 -27 58 c-19 43 -41 69 -83 103 -67 53 -257 152 -269 140 -4 -4 -9 -580
-11 -1279 l-2 -1272 437 -230 c390 -205 976 -519 1183 -633 l76 -42 118 55
c65 30 121 57 124 60 3 3 8 516 12 1140 3 624 9 1137 12 1141 11 10 351 -178
376 -209 10 -11 7 -25 -9 -63 -31 -68 -36 -168 -14 -219 16 -36 19 -87 22
-520 2 -264 7 -483 11 -486 30 -28 1131 -593 1139 -585 9 8 9 2506 0 2541 -6
24 -22 37 -80 69 -40 21 -322 171 -627 333 -800 426 -794 422 -805 470 -3 16
-21 49 -40 74 -67 92 -203 127 -304 77z m654 -796 c165 -87 418 -220 563 -297
l262 -140 0 -857 c0 -472 -3 -858 -7 -858 -5 0 -91 45 -193 99 l-185 99 0 344
c0 340 0 343 24 393 15 32 25 76 28 121 5 64 2 78 -22 130 -24 52 -29 75 -34
189 l-6 130 -190 98 c-104 54 -274 143 -377 198 l-188 100 0 205 c0 157 3 204
13 204 6 0 147 -71 312 -158z"/>
</g>
</svg>
